name rise32.9588peak41.5061fall63.4684.mot
datacolumns 19
datarows 24
range 18.45493400000000 18.49326400000000
endheader
time	ground_force1_vx	ground_force1_vy	ground_force1_vz	ground_force1_px	ground_force1_py	ground_force1_pz	ground_force2_vx	ground_force2_vy	ground_force2_vz	ground_force2_px	ground_force2_py	ground_force2_pz	ground_torque1_x	ground_torque1_y	ground_torque1_z	ground_torque2_x	ground_torque2_y	ground_torque2_z	
18.45493400000000	55.15376200000000	741.79637600000001	45.48155200000000	0.27924900000000	0.00000000000000	0.09279200000000	0.00000000000000	0.00000000000000	0.00000000000000	0.00000000000000	0.00000000000000	0.00000000000000	0.00000000000000	14.50899000000000	0.00000000000000	0.00000000000000	0.00000000000000	0.00000000000000	
18.45659400000000	54.38454800000000	743.17150300000003	45.51596400000000	0.27821100000000	0.00000000000000	0.09283100000000	0.00000000000000	0.00000000000000	0.00000000000000	0.00000000000000	0.00000000000000	0.00000000000000	0.00000000000000	14.54696400000000	0.00000000000000	0.00000000000000	0.00000000000000	0.00000000000000	
18.45826400000000	53.63031900000000	744.50183500000003	45.55104700000000	0.27722800000000	0.00000000000000	0.09286700000000	0.00000000000000	0.00000000000000	0.00000000000000	0.00000000000000	0.00000000000000	0.00000000000000	0.00000000000000	14.58741800000000	0.00000000000000	0.00000000000000	0.00000000000000	0.00000000000000	
18.45993300000000	52.89164600000000	745.78648599999997	45.58688500000000	0.27629900000000	0.00000000000000	0.09290000000000	0.00000000000000	0.00000000000000	0.00000000000000	0.00000000000000	0.00000000000000	0.00000000000000	0.00000000000000	14.63029400000000	0.00000000000000	0.00000000000000	0.00000000000000	0.00000000000000	
18.46159900000000	52.16898500000000	747.02445999999998	45.62348900000000	0.27542300000000	0.00000000000000	0.09292900000000	0.00000000000000	0.00000000000000	0.00000000000000	0.00000000000000	0.00000000000000	0.00000000000000	0.00000000000000	14.67549400000000	0.00000000000000	0.00000000000000	0.00000000000000	0.00000000000000	
18.46327600000000	51.46267100000000	748.21466899999996	45.66080000000000	0.27459600000000	0.00000000000000	0.09295600000000	0.00000000000000	0.00000000000000	0.00000000000000	0.00000000000000	0.00000000000000	0.00000000000000	0.00000000000000	14.72287800000000	0.00000000000000	0.00000000000000	0.00000000000000	0.00000000000000	
18.46493500000000	50.77293100000000	749.35594900000001	45.69869300000000	0.27381800000000	0.00000000000000	0.09298000000000	0.00000000000000	0.00000000000000	0.00000000000000	0.00000000000000	0.00000000000000	0.00000000000000	0.00000000000000	14.77227400000000	0.00000000000000	0.00000000000000	0.00000000000000	0.00000000000000	
18.46659900000000	50.09988400000000	750.44707700000004	45.73698100000000	0.27308500000000	0.00000000000000	0.09300100000000	0.00000000000000	0.00000000000000	0.00000000000000	0.00000000000000	0.00000000000000	0.00000000000000	0.00000000000000	14.82347200000000	0.00000000000000	0.00000000000000	0.00000000000000	0.00000000000000	
18.46827600000000	49.44354200000000	751.48678800000005	45.77542000000000	0.27239400000000	0.00000000000000	0.09301900000000	0.00000000000000	0.00000000000000	0.00000000000000	0.00000000000000	0.00000000000000	0.00000000000000	0.00000000000000	14.87623300000000	0.00000000000000	0.00000000000000	0.00000000000000	0.00000000000000	
18.46992700000000	48.80382400000000	752.47378600000002	45.81371500000000	0.27174300000000	0.00000000000000	0.09303500000000	0.00000000000000	0.00000000000000	0.00000000000000	0.00000000000000	0.00000000000000	0.00000000000000	0.00000000000000	14.93029000000000	0.00000000000000	0.00000000000000	0.00000000000000	0.00000000000000	
18.47159400000000	48.18055000000000	753.40676599999995	45.85152400000000	0.27112900000000	0.00000000000000	0.09304900000000	0.00000000000000	0.00000000000000	0.00000000000000	0.00000000000000	0.00000000000000	0.00000000000000	0.00000000000000	14.98535000000000	0.00000000000000	0.00000000000000	0.00000000000000	0.00000000000000	
18.47326300000000	47.57345700000000	754.28442500000006	45.88846000000000	0.27054900000000	0.00000000000000	0.09306000000000	0.00000000000000	0.00000000000000	0.00000000000000	0.00000000000000	0.00000000000000	0.00000000000000	0.00000000000000	15.04109800000000	0.00000000000000	0.00000000000000	0.00000000000000	0.00000000000000	
18.47493100000000	46.98219800000000	755.10547899999995	45.92410300000000	0.26999800000000	0.00000000000000	0.09306900000000	0.00000000000000	0.00000000000000	0.00000000000000	0.00000000000000	0.00000000000000	0.00000000000000	0.00000000000000	15.09720100000000	0.00000000000000	0.00000000000000	0.00000000000000	0.00000000000000	
18.47660200000000	46.40635100000000	755.86867400000006	45.95800100000000	0.26947400000000	0.00000000000000	0.09307700000000	0.00000000000000	0.00000000000000	0.00000000000000	0.00000000000000	0.00000000000000	0.00000000000000	0.00000000000000	15.15330900000000	0.00000000000000	0.00000000000000	0.00000000000000	0.00000000000000	
18.47826500000000	45.84542300000000	756.57280100000003	45.98967600000000	0.26897300000000	0.00000000000000	0.09308300000000	0.00000000000000	0.00000000000000	0.00000000000000	0.00000000000000	0.00000000000000	0.00000000000000	0.00000000000000	15.20905900000000	0.00000000000000	0.00000000000000	0.00000000000000	0.00000000000000	
18.47993100000000	45.29886200000000	757.21670800000004	46.01863000000000	0.26849100000000	0.00000000000000	0.09308700000000	0.00000000000000	0.00000000000000	0.00000000000000	0.00000000000000	0.00000000000000	0.00000000000000	0.00000000000000	15.26408100000000	0.00000000000000	0.00000000000000	0.00000000000000	0.00000000000000	
18.48159700000000	44.76605600000000	757.79931199999999	46.04435000000000	0.26802500000000	0.00000000000000	0.09308900000000	0.00000000000000	0.00000000000000	0.00000000000000	0.00000000000000	0.00000000000000	0.00000000000000	0.00000000000000	15.31799500000000	0.00000000000000	0.00000000000000	0.00000000000000	0.00000000000000	
18.48326100000000	44.24634600000000	758.31961000000001	46.06631500000000	0.26757100000000	0.00000000000000	0.09309100000000	0.00000000000000	0.00000000000000	0.00000000000000	0.00000000000000	0.00000000000000	0.00000000000000	0.00000000000000	15.37042000000000	0.00000000000000	0.00000000000000	0.00000000000000	0.00000000000000	
18.48493400000000	43.73903100000000	758.77669000000003	46.08400000000000	0.26712600000000	0.00000000000000	0.09309100000000	0.00000000000000	0.00000000000000	0.00000000000000	0.00000000000000	0.00000000000000	0.00000000000000	0.00000000000000	15.42097500000000	0.00000000000000	0.00000000000000	0.00000000000000	0.00000000000000	
18.48660100000000	43.24337200000000	759.16973599999994	46.09688000000000	0.26668500000000	0.00000000000000	0.09309000000000	0.00000000000000	0.00000000000000	0.00000000000000	0.00000000000000	0.00000000000000	0.00000000000000	0.00000000000000	15.46928100000000	0.00000000000000	0.00000000000000	0.00000000000000	0.00000000000000	
18.48826800000000	42.75860300000000	759.49804300000005	46.10443900000000	0.26624500000000	0.00000000000000	0.09308900000000	0.00000000000000	0.00000000000000	0.00000000000000	0.00000000000000	0.00000000000000	0.00000000000000	0.00000000000000	15.51496500000000	0.00000000000000	0.00000000000000	0.00000000000000	0.00000000000000	
18.48992800000000	42.28393500000000	759.76101800000004	46.10616800000000	0.26580300000000	0.00000000000000	0.09308600000000	0.00000000000000	0.00000000000000	0.00000000000000	0.00000000000000	0.00000000000000	0.00000000000000	0.00000000000000	15.55766100000000	0.00000000000000	0.00000000000000	0.00000000000000	0.00000000000000	
18.49159800000000	41.81856300000000	759.95819300000005	46.10157800000000	0.26535500000000	0.00000000000000	0.09308300000000	0.00000000000000	0.00000000000000	0.00000000000000	0.00000000000000	0.00000000000000	0.00000000000000	0.00000000000000	15.59701700000000	0.00000000000000	0.00000000000000	0.00000000000000	0.00000000000000	
18.49326400000000	41.36167400000000	760.08922500000006	46.09019700000000	0.26489700000000	0.00000000000000	0.09308000000000	0.00000000000000	0.00000000000000	0.00000000000000	0.00000000000000	0.00000000000000	0.00000000000000	0.00000000000000	15.63269200000000	0.00000000000000	0.00000000000000	0.00000000000000	0.00000000000000	
